<svg xmlns="http://www.w3.org/2000/svg" width="1280" height="950" viewBox="0 0 1280 950">
<rect width="100%" height="100%" fill="#ffffff"/>
<style>text{font-family:-apple-system,BlinkMacSystemFont,"Segoe UI",sans-serif;fill:#202124}.axis{stroke:#5f6368;stroke-width:1}.grid{stroke:#dadce0;stroke-width:1}.label{font-size:13px}.panel-title{font-size:17px;font-weight:600}.title{font-size:21px;font-weight:650}.subtitle{font-size:14px;fill:#5f6368}</style>
<text x="82" y="31" class="title">BNDMq q-value tuning</text>
<text x="82" y="53" class="subtitle">Median search time across the mixed corpus and all tested patterns</text>
<line x1="82" y1="82" x2="110" y2="82" stroke="#1a73e8" stroke-width="3"/>
<text x="118" y="86" class="label">q=1</text>
<line x1="200" y1="82" x2="228" y2="82" stroke="#d93025" stroke-width="3"/>
<text x="236" y="86" class="label">q=2</text>
<line x1="318" y1="82" x2="346" y2="82" stroke="#188038" stroke-width="3"/>
<text x="354" y="86" class="label">q=3</text>
<line x1="436" y1="82" x2="464" y2="82" stroke="#f29900" stroke-width="3"/>
<text x="472" y="86" class="label">q=4</text>
<line x1="554" y1="82" x2="582" y2="82" stroke="#9334e6" stroke-width="3"/>
<text x="590" y="86" class="label">q=5</text>
<line x1="672" y1="82" x2="700" y2="82" stroke="#007b83" stroke-width="3"/>
<text x="708" y="86" class="label">q=6</text>
<line x1="82" y1="106" x2="110" y2="106" stroke="#e37400" stroke-width="3"/>
<text x="118" y="110" class="label">q=7</text>
<line x1="200" y1="106" x2="228" y2="106" stroke="#c5221f" stroke-width="3"/>
<text x="236" y="110" class="label">q=8</text>
<line x1="318" y1="106" x2="346" y2="106" stroke="#5f6368" stroke-width="3"/>
<text x="354" y="110" class="label">q=9</text>
<line x1="436" y1="106" x2="464" y2="106" stroke="#3f51b5" stroke-width="3"/>
<text x="472" y="110" class="label">q=10</text>
<line x1="554" y1="106" x2="582" y2="106" stroke="#00a1c9" stroke-width="3"/>
<text x="590" y="110" class="label">q=11</text>
<line x1="672" y1="106" x2="700" y2="106" stroke="#9c6ade" stroke-width="3"/>
<text x="708" y="110" class="label">q=12</text>
<text x="82" y="148" class="panel-title">First-match search</text>
<line x1="82" y1="445.0" x2="1246" y2="445.0" class="grid"/>
<text x="70" y="449.0" text-anchor="end" class="label">0.00</text>
<line x1="82" y1="389.0" x2="1246" y2="389.0" class="grid"/>
<text x="70" y="393.0" text-anchor="end" class="label">0.53</text>
<line x1="82" y1="333.0" x2="1246" y2="333.0" class="grid"/>
<text x="70" y="337.0" text-anchor="end" class="label">1.06</text>
<line x1="82" y1="277.0" x2="1246" y2="277.0" class="grid"/>
<text x="70" y="281.0" text-anchor="end" class="label">1.58</text>
<line x1="82" y1="221.0" x2="1246" y2="221.0" class="grid"/>
<text x="70" y="225.0" text-anchor="end" class="label">2.11</text>
<line x1="82" y1="165.0" x2="1246" y2="165.0" class="grid"/>
<text x="70" y="169.0" text-anchor="end" class="label">2.64</text>
<line x1="82" y1="165" x2="82" y2="445" class="axis"/>
<line x1="82" y1="445" x2="1246" y2="445" class="axis"/>
<text transform="translate(25 305.0) rotate(-90)" text-anchor="middle" class="label">median ns/base</text>
<polyline points="82.0,313.3 101.4,332.2 120.8,348.4 140.2,357.9 159.6,363.2 179.0,370.1 198.4,375.2 217.8,380.1 237.2,383.5 256.6,387.2 276.0,389.8 295.4,391.9 314.8,395.5 334.2,397.3 353.6,399.1 373.0,399.7 392.4,401.8 411.8,402.0 431.2,404.7 450.6,405.5 470.0,405.5 489.4,405.8 508.8,409.3 528.2,409.4 547.6,409.4 567.0,408.3 586.4,409.2 605.8,413.3 625.2,412.9 644.6,413.2 664.0,413.4 683.4,411.9 702.8,412.0 722.2,411.8 741.6,413.8 761.0,413.9 780.4,414.4 799.8,414.2 819.2,414.1 838.6,414.0 858.0,413.9 877.4,413.9 896.8,413.9 916.2,413.4 935.6,413.7 955.0,413.2 974.4,413.4 993.8,416.3 1013.2,416.6 1032.6,416.3 1052.0,415.5 1071.4,415.2 1090.8,415.4 1110.2,414.9 1129.6,414.6 1149.0,414.2 1168.4,414.5 1187.8,414.3 1207.2,412.9 1226.6,412.1 1246.0,411.6" fill="none" stroke="#1a73e8" stroke-width="2.0" stroke-linejoin="round" stroke-linecap="round"/>
<polyline points="82.0,372.0 101.4,374.0 120.8,377.2 140.2,378.9 159.6,380.7 179.0,383.3 198.4,386.7 217.8,388.8 237.2,392.8 256.6,395.1 276.0,398.1 295.4,400.6 314.8,402.3 334.2,404.1 353.6,406.5 373.0,406.8 392.4,409.5 411.8,408.5 431.2,409.0 450.6,411.7 470.0,411.8 489.4,412.0 508.8,413.8 528.2,414.5 547.6,414.6 567.0,413.8 586.4,414.3 605.8,416.4 625.2,417.1 644.6,416.7 664.0,416.5 683.4,416.4 702.8,414.9 722.2,415.2 741.6,414.9 761.0,416.5 780.4,417.3 799.8,417.4 819.2,417.2 838.6,417.2 858.0,416.8 877.4,415.8 896.8,416.5 916.2,416.4 935.6,416.5 955.0,416.3 974.4,415.0 993.8,418.8 1013.2,419.0 1032.6,418.0 1052.0,418.4 1071.4,418.1 1090.8,417.6 1110.2,416.3 1129.6,417.4 1149.0,416.7 1168.4,416.8 1187.8,416.7 1207.2,416.4 1226.6,414.4 1246.0,413.5" fill="none" stroke="#d93025" stroke-width="2.0" stroke-linejoin="round" stroke-linecap="round"/>
<polyline points="82.0,386.7 101.4,397.0 120.8,403.1 140.2,406.3 159.6,408.7 179.0,411.7 198.4,413.2 217.8,414.2 237.2,415.2 256.6,415.6 276.0,416.1 295.4,416.7 314.8,416.6 334.2,417.6 353.6,417.0 373.0,417.8 392.4,417.1 411.8,418.3 431.2,417.1 450.6,416.6 470.0,417.9 489.4,417.6 508.8,417.2 528.2,418.4 547.6,418.4 567.0,417.6 586.4,417.9 605.8,417.7 625.2,419.3 644.6,419.2 664.0,418.7 683.4,418.6 702.8,418.5 722.2,416.9 741.6,416.9 761.0,415.5 780.4,419.1 799.8,419.0 819.2,418.6 838.6,418.6 858.0,418.4 877.4,418.0 896.8,417.9 916.2,417.8 935.6,417.6 955.0,417.2 974.4,417.5 993.8,417.4 1013.2,420.0 1032.6,419.9 1052.0,419.7 1071.4,419.3 1090.8,418.9 1110.2,418.7 1129.6,418.3 1149.0,418.0 1168.4,417.9 1187.8,417.8 1207.2,417.3 1226.6,417.2 1246.0,414.8" fill="none" stroke="#188038" stroke-width="2.0" stroke-linejoin="round" stroke-linecap="round"/>
<polyline points="82.0,348.1 101.4,389.3 120.8,404.9 140.2,411.5 159.6,415.8 179.0,419.2 198.4,420.8 217.8,422.1 237.2,423.3 256.6,424.3 276.0,424.7 295.4,424.8 314.8,425.1 334.2,425.6 353.6,425.9 373.0,425.5 392.4,426.1 411.8,425.6 431.2,426.3 450.6,425.7 470.0,425.5 489.4,425.5 508.8,425.6 528.2,424.8 547.6,425.8 567.0,425.1 586.4,425.2 605.8,425.1 625.2,424.8 644.6,425.4 664.0,425.2 683.4,424.9 702.8,424.6 722.2,424.4 741.6,423.5 761.0,421.5 780.4,422.9 799.8,423.8 819.2,422.3 838.6,423.0 858.0,423.0 877.4,422.9 896.8,420.3 916.2,420.0 935.6,422.0 955.0,422.0 974.4,422.0 993.8,421.6 1013.2,421.7 1032.6,422.1 1052.0,419.8 1071.4,422.0 1090.8,421.6 1110.2,421.4 1129.6,418.5 1149.0,420.6 1168.4,420.6 1187.8,420.3 1207.2,419.9 1226.6,419.6 1246.0,419.5" fill="none" stroke="#f29900" stroke-width="2.0" stroke-linejoin="round" stroke-linecap="round"/>
<polyline points="101.4,331.2 120.8,384.1 140.2,400.8 159.6,410.7 179.0,415.9 198.4,419.0 217.8,421.9 237.2,422.9 256.6,424.1 276.0,425.1 295.4,425.7 314.8,425.8 334.2,426.5 353.6,426.8 373.0,427.0 392.4,427.1 411.8,427.4 431.2,427.3 450.6,427.6 470.0,427.2 489.4,427.5 508.8,427.4 528.2,427.1 547.6,427.2 567.0,426.9 586.4,427.1 605.8,426.9 625.2,426.5 644.6,426.6 664.0,426.8 683.4,426.5 702.8,426.1 722.2,426.1 741.6,425.6 761.0,424.1 780.4,424.9 799.8,425.6 819.2,425.2 838.6,424.7 858.0,424.5 877.4,424.4 896.8,424.2 916.2,423.8 935.6,423.7 955.0,423.3 974.4,423.5 993.8,423.2 1013.2,423.0 1032.6,423.7 1052.0,423.3 1071.4,422.9 1090.8,422.7 1110.2,422.2 1129.6,422.0 1149.0,421.7 1168.4,421.6 1187.8,421.3 1207.2,420.9 1226.6,420.8 1246.0,420.5" fill="none" stroke="#9334e6" stroke-width="2.0" stroke-linejoin="round" stroke-linecap="round"/>
<polyline points="120.8,321.8 140.2,379.1 159.6,397.0 179.0,408.8 198.4,414.0 217.8,417.6 237.2,420.4 256.6,421.9 276.0,423.1 295.4,424.3 314.8,424.9 334.2,425.4 353.6,425.8 373.0,426.2 392.4,426.6 411.8,426.6 431.2,427.0 450.6,426.9 470.0,427.2 489.4,427.0 508.8,427.5 528.2,427.2 547.6,427.1 567.0,426.2 586.4,427.2 605.8,427.0 625.2,426.7 644.6,426.6 664.0,426.5 683.4,426.7 702.8,426.5 722.2,426.3 741.6,426.0 761.0,425.3 780.4,425.3 799.8,425.5 819.2,425.8 838.6,424.9 858.0,425.2 877.4,425.0 896.8,424.8 916.2,424.4 935.6,424.2 955.0,423.9 974.4,424.0 993.8,423.6 1013.2,423.6 1032.6,423.6 1052.0,423.7 1071.4,423.3 1090.8,423.1 1110.2,422.9 1129.6,422.5 1149.0,422.2 1168.4,422.0 1187.8,421.6 1207.2,421.4 1226.6,421.0 1246.0,420.9" fill="none" stroke="#007b83" stroke-width="2.0" stroke-linejoin="round" stroke-linecap="round"/>
<polyline points="140.2,303.5 159.6,369.9 179.0,392.6 198.4,402.9 217.8,411.9 237.2,415.1 256.6,418.4 276.0,419.9 295.4,421.6 314.8,422.9 334.2,423.8 353.6,424.2 373.0,424.3 392.4,425.5 411.8,425.9 431.2,425.9 450.6,426.4 470.0,426.4 489.4,426.6 508.8,426.5 528.2,426.6 547.6,426.5 567.0,426.0 586.4,425.8 605.8,426.9 625.2,426.6 644.6,426.4 664.0,426.3 683.4,426.7 702.8,426.3 722.2,426.1 741.6,425.9 761.0,425.1 780.4,425.5 799.8,425.1 819.2,423.6 838.6,425.1 858.0,424.8 877.4,423.1 896.8,424.6 916.2,424.1 935.6,424.0 955.0,421.1 974.4,423.6 993.8,423.4 1013.2,423.4 1032.6,423.3 1052.0,423.1 1071.4,423.4 1090.8,423.1 1110.2,422.8 1129.6,422.5 1149.0,422.1 1168.4,421.9 1187.8,421.5 1207.2,418.5 1226.6,421.0 1246.0,420.7" fill="none" stroke="#e37400" stroke-width="2.0" stroke-linejoin="round" stroke-linecap="round"/>
<polyline points="159.6,291.0 179.0,365.1 198.4,388.4 217.8,400.2 237.2,408.8 256.6,413.5 276.0,415.9 295.4,418.8 314.8,420.5 334.2,421.4 353.6,422.1 373.0,423.5 392.4,423.6 411.8,424.2 431.2,424.8 450.6,425.4 470.0,425.3 489.4,425.8 508.8,425.5 528.2,425.4 547.6,426.0 567.0,425.7 586.4,425.5 605.8,426.3 625.2,426.0 644.6,425.7 664.0,425.5 683.4,425.5 702.8,426.0 722.2,425.4 741.6,425.2 761.0,424.5 780.4,424.7 799.8,424.4 819.2,423.2 838.6,424.7 858.0,423.4 877.4,424.4 896.8,424.1 916.2,423.8 935.6,423.6 955.0,421.4 974.4,423.4 993.8,421.2 1013.2,422.9 1032.6,422.7 1052.0,422.7 1071.4,423.1 1090.8,420.6 1110.2,422.5 1129.6,419.8 1149.0,421.7 1168.4,421.6 1187.8,418.8 1207.2,418.4 1226.6,420.7 1246.0,420.3" fill="none" stroke="#c5221f" stroke-width="2.0" stroke-linejoin="round" stroke-linecap="round"/>
<polyline points="179.0,276.9 198.4,356.4 217.8,383.3 237.2,396.3 256.6,404.0 276.0,410.8 295.4,414.2 314.8,416.6 334.2,418.8 353.6,419.8 373.0,421.5 392.4,422.3 411.8,423.2 431.2,423.3 450.6,424.0 470.0,424.7 489.4,424.4 508.8,425.2 528.2,425.0 547.6,425.0 567.0,425.1 586.4,425.3 605.8,425.3 625.2,425.8 644.6,425.6 664.0,425.4 683.4,425.1 702.8,425.2 722.2,425.7 741.6,425.3 761.0,424.8 780.4,424.7 799.8,424.7 819.2,424.6 838.6,424.3 858.0,424.8 877.4,424.6 896.8,424.3 916.2,423.7 935.6,423.7 955.0,423.2 974.4,423.2 993.8,422.9 1013.2,423.0 1032.6,422.9 1052.0,422.8 1071.4,422.5 1090.8,423.2 1110.2,422.8 1129.6,422.3 1149.0,422.2 1168.4,422.0 1187.8,421.7 1207.2,421.3 1226.6,421.1 1246.0,420.7" fill="none" stroke="#5f6368" stroke-width="2.0" stroke-linejoin="round" stroke-linecap="round"/>
<polyline points="198.4,263.5 217.8,350.5 237.2,378.4 256.6,392.7 276.0,400.8 295.4,408.3 314.8,411.5 334.2,414.8 353.6,416.7 373.0,417.7 392.4,420.0 411.8,420.9 431.2,421.8 450.6,421.8 470.0,422.5 489.4,423.3 508.8,423.2 528.2,423.9 547.6,423.8 567.0,423.6 586.4,424.3 605.8,424.3 625.2,424.2 644.6,424.6 664.0,424.6 683.4,424.3 702.8,424.3 722.2,424.2 741.6,424.6 761.0,424.0 780.4,424.0 799.8,424.0 819.2,423.6 838.6,423.4 858.0,423.3 877.4,424.1 896.8,423.8 916.2,423.3 935.6,423.0 955.0,422.7 974.4,422.6 993.8,422.2 1013.2,422.3 1032.6,422.2 1052.0,422.0 1071.4,422.0 1090.8,422.0 1110.2,422.6 1129.6,422.0 1149.0,421.7 1168.4,421.5 1187.8,421.0 1207.2,420.8 1226.6,420.7 1246.0,420.3" fill="none" stroke="#3f51b5" stroke-width="2.0" stroke-linejoin="round" stroke-linecap="round"/>
<polyline points="217.8,248.3 237.2,342.1 256.6,373.9 276.0,388.6 295.4,397.8 314.8,403.9 334.2,409.7 353.6,412.9 373.0,415.1 392.4,416.5 411.8,418.8 431.2,419.8 450.6,420.8 470.0,420.9 489.4,421.7 508.8,422.6 528.2,422.6 547.6,423.3 567.0,423.0 586.4,423.2 605.8,424.0 625.2,423.8 644.6,423.7 664.0,424.4 683.4,424.2 702.8,424.2 722.2,423.8 741.6,423.7 761.0,423.5 780.4,423.9 799.8,423.8 819.2,423.5 838.6,423.3 858.0,423.4 877.4,423.2 896.8,422.2 916.2,421.2 935.6,423.0 955.0,422.5 974.4,422.5 993.8,422.2 1013.2,422.0 1032.6,419.8 1052.0,421.9 1071.4,421.8 1090.8,421.4 1110.2,422.4 1129.6,419.4 1149.0,419.6 1168.4,419.8 1187.8,421.2 1207.2,420.9 1226.6,420.7 1246.0,420.3" fill="none" stroke="#00a1c9" stroke-width="2.0" stroke-linejoin="round" stroke-linecap="round"/>
<polyline points="237.2,235.5 256.6,336.2 276.0,369.0 295.4,385.7 314.8,395.4 334.2,401.3 353.6,407.7 373.0,410.2 392.4,413.2 411.8,415.5 431.2,416.7 450.6,418.0 470.0,419.2 489.4,420.1 508.8,420.1 528.2,420.8 547.6,420.9 567.0,421.6 586.4,421.4 605.8,422.9 625.2,422.6 644.6,422.4 664.0,421.9 683.4,421.2 702.8,422.7 722.2,422.9 741.6,422.4 761.0,423.2 780.4,422.9 799.8,423.0 819.2,422.8 838.6,422.5 858.0,422.6 877.4,420.9 896.8,421.4 916.2,421.0 935.6,421.4 955.0,420.1 974.4,422.0 993.8,421.6 1013.2,419.1 1032.6,419.3 1052.0,419.1 1071.4,420.9 1090.8,420.7 1110.2,420.8 1129.6,421.7 1149.0,419.3 1168.4,421.1 1187.8,418.9 1207.2,420.6 1226.6,420.0 1246.0,417.0" fill="none" stroke="#9c6ade" stroke-width="2.0" stroke-linejoin="round" stroke-linecap="round"/>
<line x1="198.4" y1="445" x2="198.4" y2="450" class="axis"/>
<text x="198.4" y="467" text-anchor="middle" class="label">10</text>
<line x1="392.4" y1="445" x2="392.4" y2="450" class="axis"/>
<text x="392.4" y="467" text-anchor="middle" class="label">20</text>
<line x1="586.4" y1="445" x2="586.4" y2="450" class="axis"/>
<text x="586.4" y="467" text-anchor="middle" class="label">30</text>
<line x1="780.4" y1="445" x2="780.4" y2="450" class="axis"/>
<text x="780.4" y="467" text-anchor="middle" class="label">40</text>
<line x1="974.4" y1="445" x2="974.4" y2="450" class="axis"/>
<text x="974.4" y="467" text-anchor="middle" class="label">50</text>
<line x1="1168.4" y1="445" x2="1168.4" y2="450" class="axis"/>
<text x="1168.4" y="467" text-anchor="middle" class="label">60</text>
<text x="664.0" y="491" text-anchor="middle" class="label">pattern length k</text>
<text x="82" y="553" class="panel-title">All-match enumeration</text>
<line x1="82" y1="850.0" x2="1246" y2="850.0" class="grid"/>
<text x="70" y="854.0" text-anchor="end" class="label">0.00</text>
<line x1="82" y1="794.0" x2="1246" y2="794.0" class="grid"/>
<text x="70" y="798.0" text-anchor="end" class="label">0.53</text>
<line x1="82" y1="738.0" x2="1246" y2="738.0" class="grid"/>
<text x="70" y="742.0" text-anchor="end" class="label">1.06</text>
<line x1="82" y1="682.0" x2="1246" y2="682.0" class="grid"/>
<text x="70" y="686.0" text-anchor="end" class="label">1.58</text>
<line x1="82" y1="626.0" x2="1246" y2="626.0" class="grid"/>
<text x="70" y="630.0" text-anchor="end" class="label">2.11</text>
<line x1="82" y1="570.0" x2="1246" y2="570.0" class="grid"/>
<text x="70" y="574.0" text-anchor="end" class="label">2.64</text>
<line x1="82" y1="570" x2="82" y2="850" class="axis"/>
<line x1="82" y1="850" x2="1246" y2="850" class="axis"/>
<text transform="translate(25 710.0) rotate(-90)" text-anchor="middle" class="label">median ns/base</text>
<polyline points="82.0,680.3 101.4,707.5 120.8,726.5 140.2,739.8 159.6,747.9 179.0,756.1 198.4,763.0 217.8,769.1 237.2,773.9 256.6,777.9 276.0,781.7 295.4,784.1 314.8,788.8 334.2,790.8 353.6,793.0 373.0,795.2 392.4,796.9 411.8,798.5 431.2,801.3 450.6,802.5 470.0,801.9 489.4,802.2 508.8,806.8 528.2,805.5 547.6,805.9 567.0,806.0 586.4,806.8 605.8,811.6 625.2,811.3 644.6,809.9 664.0,811.9 683.4,812.2 702.8,810.9 722.2,810.3 741.6,814.5 761.0,815.5 780.4,815.5 799.8,815.5 819.2,815.3 838.6,815.0 858.0,815.1 877.4,814.5 896.8,814.5 916.2,815.4 935.6,815.9 955.0,815.1 974.4,816.2 993.8,817.8 1013.2,819.0 1032.6,819.0 1052.0,819.2 1071.4,818.4 1090.8,818.3 1110.2,818.2 1129.6,817.6 1149.0,817.8 1168.4,817.5 1187.8,817.6 1207.2,817.3 1226.6,817.4 1246.0,816.9" fill="none" stroke="#1a73e8" stroke-width="2.0" stroke-linejoin="round" stroke-linecap="round"/>
<polyline points="82.0,755.4 101.4,760.3 120.8,763.0 140.2,767.9 159.6,769.4 179.0,773.1 198.4,776.8 217.8,779.8 237.2,784.5 256.6,787.8 276.0,791.1 295.4,794.1 314.8,797.1 334.2,799.3 353.6,801.8 373.0,802.3 392.4,805.0 411.8,805.8 431.2,806.7 450.6,808.9 470.0,808.9 489.4,809.6 508.8,812.1 528.2,813.1 547.6,813.0 567.0,813.2 586.4,813.6 605.8,816.1 625.2,816.9 644.6,816.8 664.0,816.7 683.4,816.9 702.8,816.8 722.2,816.5 741.6,816.5 761.0,819.3 780.4,818.8 799.8,819.3 819.2,819.1 838.6,819.1 858.0,819.1 877.4,819.0 896.8,818.9 916.2,818.9 935.6,818.9 955.0,819.3 974.4,819.4 993.8,821.7 1013.2,821.8 1032.6,821.9 1052.0,821.6 1071.4,821.4 1090.8,821.0 1110.2,820.8 1129.6,820.6 1149.0,820.4 1168.4,820.2 1187.8,819.9 1207.2,819.7 1226.6,819.6 1246.0,819.3" fill="none" stroke="#d93025" stroke-width="2.0" stroke-linejoin="round" stroke-linecap="round"/>
<polyline points="82.0,773.2 101.4,787.4 120.8,795.5 140.2,801.1 159.6,804.2 179.0,806.7 198.4,809.4 217.8,810.8 237.2,811.9 256.6,812.5 276.0,814.0 295.4,814.4 314.8,814.7 334.2,815.6 353.6,815.3 373.0,816.2 392.4,816.0 411.8,817.3 431.2,816.8 450.6,817.0 470.0,817.8 489.4,817.6 508.8,817.5 528.2,819.4 547.6,818.9 567.0,818.5 586.4,818.2 605.8,818.2 625.2,820.4 644.6,820.2 664.0,820.3 683.4,820.1 702.8,819.8 722.2,819.6 741.6,819.6 761.0,818.9 780.4,821.0 799.8,821.0 819.2,820.8 838.6,820.6 858.0,820.5 877.4,820.3 896.8,820.2 916.2,820.1 935.6,820.0 955.0,820.0 974.4,820.3 993.8,820.2 1013.2,822.8 1032.6,822.6 1052.0,822.4 1071.4,822.2 1090.8,821.7 1110.2,821.6 1129.6,821.3 1149.0,821.2 1168.4,820.9 1187.8,820.6 1207.2,820.4 1226.6,820.3 1246.0,820.1" fill="none" stroke="#188038" stroke-width="2.0" stroke-linejoin="round" stroke-linecap="round"/>
<polyline points="82.0,723.3 101.4,777.5 120.8,795.8 140.2,806.1 159.6,812.2 179.0,816.4 198.4,819.2 217.8,821.2 237.2,822.9 256.6,824.3 276.0,825.2 295.4,825.6 314.8,826.1 334.2,826.6 353.6,827.0 373.0,826.8 392.4,827.2 411.8,827.2 431.2,827.8 450.6,827.6 470.0,827.4 489.4,827.9 508.8,827.6 528.2,827.5 547.6,828.1 567.0,827.7 586.4,827.5 605.8,827.4 625.2,827.4 644.6,828.0 664.0,827.7 683.4,827.3 702.8,827.1 722.2,826.8 741.6,826.6 761.0,826.6 780.4,826.5 799.8,826.7 819.2,826.4 838.6,826.2 858.0,825.9 877.4,825.7 896.8,825.6 916.2,825.4 935.6,825.0 955.0,825.2 974.4,825.2 993.8,825.2 1013.2,825.3 1032.6,826.1 1052.0,825.8 1071.4,825.5 1090.8,825.0 1110.2,824.7 1129.6,824.4 1149.0,824.2 1168.4,823.9 1187.8,823.7 1207.2,823.4 1226.6,823.1 1246.0,822.9" fill="none" stroke="#f29900" stroke-width="2.0" stroke-linejoin="round" stroke-linecap="round"/>
<polyline points="101.4,702.0 120.8,770.0 140.2,792.6 159.6,806.5 179.0,813.3 198.4,817.5 217.8,821.3 237.2,823.3 256.6,824.9 276.0,826.5 295.4,827.1 314.8,828.0 334.2,828.6 353.6,828.7 373.0,829.4 392.4,829.3 411.8,829.8 431.2,829.7 450.6,830.2 470.0,829.9 489.4,830.6 508.8,830.2 528.2,830.1 547.6,829.9 567.0,830.3 586.4,830.1 605.8,829.8 625.2,829.7 644.6,829.8 664.0,830.0 683.4,829.8 702.8,829.3 722.2,829.1 741.6,828.9 761.0,828.6 780.4,828.5 799.8,829.0 819.2,828.5 838.6,828.3 858.0,828.1 877.4,827.8 896.8,827.6 916.2,826.5 935.6,827.1 955.0,827.0 974.4,826.5 993.8,826.9 1013.2,826.8 1032.6,827.5 1052.0,827.3 1071.4,826.9 1090.8,826.6 1110.2,826.2 1129.6,826.0 1149.0,825.6 1168.4,825.5 1187.8,825.1 1207.2,824.8 1226.6,824.6 1246.0,824.4" fill="none" stroke="#9334e6" stroke-width="2.0" stroke-linejoin="round" stroke-linecap="round"/>
<polyline points="120.8,688.4 140.2,764.1 159.6,787.8 179.0,804.0 198.4,811.5 217.8,816.4 237.2,820.4 256.6,822.5 276.0,824.4 295.4,825.9 314.8,826.7 334.2,827.5 353.6,827.8 373.0,828.5 392.4,829.0 411.8,829.2 431.2,829.6 450.6,829.7 470.0,829.9 489.4,830.1 508.8,830.6 528.2,830.3 547.6,830.1 567.0,829.9 586.4,830.5 605.8,830.1 625.2,830.0 644.6,829.9 664.0,829.8 683.4,830.1 702.8,829.8 722.2,829.4 741.6,829.1 761.0,829.1 780.4,828.8 799.8,829.0 819.2,829.2 838.6,828.7 858.0,828.5 877.4,828.4 896.8,828.0 916.2,827.9 935.6,827.6 955.0,827.6 974.4,827.5 993.8,827.3 1013.2,827.3 1032.6,827.4 1052.0,827.6 1071.4,827.3 1090.8,826.9 1110.2,826.5 1129.6,826.3 1149.0,826.1 1168.4,825.8 1187.8,825.0 1207.2,825.1 1226.6,824.9 1246.0,824.8" fill="none" stroke="#007b83" stroke-width="2.0" stroke-linejoin="round" stroke-linecap="round"/>
<polyline points="140.2,666.4 159.6,751.4 179.0,781.5 198.4,795.6 217.8,807.0 237.2,813.0 256.6,817.5 276.0,819.7 295.4,822.0 314.8,823.7 334.2,825.0 353.6,825.9 373.0,826.7 392.4,827.1 411.8,827.8 431.2,828.0 450.6,828.6 470.0,828.6 489.4,829.2 508.8,829.1 528.2,829.6 547.6,829.3 567.0,829.2 586.4,829.2 605.8,829.5 625.2,829.3 644.6,829.2 664.0,829.2 683.4,829.6 702.8,829.3 722.2,828.8 741.6,828.7 761.0,828.4 780.4,828.2 799.8,828.4 819.2,828.3 838.6,828.6 858.0,828.4 877.4,828.1 896.8,827.8 916.2,827.6 935.6,827.3 955.0,827.3 974.4,827.1 993.8,827.0 1013.2,826.9 1032.6,827.0 1052.0,827.0 1071.4,827.0 1090.8,826.6 1110.2,826.3 1129.6,826.2 1149.0,825.7 1168.4,825.5 1187.8,824.4 1207.2,825.0 1226.6,824.8 1246.0,824.6" fill="none" stroke="#e37400" stroke-width="2.0" stroke-linejoin="round" stroke-linecap="round"/>
<polyline points="159.6,649.9 179.0,744.4 198.4,777.5 217.8,792.7 237.2,804.5 256.6,811.3 276.0,815.5 295.4,818.6 314.8,821.1 334.2,822.3 353.6,823.1 373.0,825.1 392.4,825.1 411.8,826.0 431.2,826.8 450.6,827.8 470.0,827.6 489.4,828.5 508.8,828.4 528.2,828.4 547.6,828.8 567.0,828.7 586.4,828.6 605.8,829.3 625.2,829.1 644.6,828.9 664.0,828.9 683.4,828.8 702.8,829.3 722.2,828.9 741.6,828.7 761.0,828.4 780.4,828.1 799.8,828.3 819.2,828.1 838.6,828.7 858.0,828.2 877.4,828.2 896.8,827.8 916.2,827.7 935.6,827.3 955.0,827.5 974.4,827.0 993.8,826.9 1013.2,826.7 1032.6,826.8 1052.0,826.4 1071.4,827.1 1090.8,826.5 1110.2,826.3 1129.6,826.3 1149.0,825.8 1168.4,825.6 1187.8,825.3 1207.2,825.1 1226.6,825.0 1246.0,824.7" fill="none" stroke="#c5221f" stroke-width="2.0" stroke-linejoin="round" stroke-linecap="round"/>
<polyline points="179.0,627.0 198.4,734.7 217.8,766.3 237.2,787.3 256.6,797.4 276.0,806.3 295.4,811.8 314.8,815.7 334.2,818.3 353.6,819.9 373.0,822.5 392.4,823.4 411.8,823.9 431.2,823.7 450.6,825.5 470.0,826.2 489.4,826.5 508.8,827.3 528.2,827.2 547.6,826.8 567.0,827.3 586.4,827.7 605.8,827.8 625.2,828.3 644.6,828.1 664.0,828.0 683.4,827.8 702.8,827.8 722.2,828.3 741.6,828.0 761.0,827.6 780.4,827.5 799.8,827.5 819.2,827.4 838.6,827.5 858.0,828.1 877.4,827.6 896.8,827.5 916.2,827.2 935.6,826.8 955.0,826.9 974.4,826.5 993.8,826.5 1013.2,826.5 1032.6,826.5 1052.0,825.8 1071.4,826.0 1090.8,826.5 1110.2,826.1 1129.6,826.1 1149.0,825.8 1168.4,825.6 1187.8,825.1 1207.2,824.8 1226.6,824.8 1246.0,824.4" fill="none" stroke="#5f6368" stroke-width="2.0" stroke-linejoin="round" stroke-linecap="round"/>
<polyline points="198.4,617.1 217.8,728.7 237.2,765.0 256.6,783.6 276.0,794.5 295.4,804.4 314.8,809.7 334.2,813.7 353.6,815.5 373.0,818.4 392.4,820.5 411.8,821.7 431.2,822.8 450.6,823.2 470.0,823.8 489.4,824.9 508.8,825.6 528.2,826.0 547.6,825.9 567.0,826.0 586.4,826.8 605.8,826.7 625.2,826.7 644.6,827.4 664.0,827.1 683.4,827.2 702.8,827.2 722.2,826.8 741.6,827.7 761.0,827.2 780.4,826.8 799.8,827.0 819.2,826.8 838.6,826.6 858.0,826.6 877.4,827.4 896.8,827.2 916.2,826.8 935.6,826.4 955.0,826.5 974.4,826.4 993.8,826.2 1013.2,825.9 1032.6,826.1 1052.0,825.8 1071.4,825.8 1090.8,825.7 1110.2,826.3 1129.6,826.2 1149.0,825.6 1168.4,825.3 1187.8,825.1 1207.2,824.9 1226.6,824.5 1246.0,824.3" fill="none" stroke="#3f51b5" stroke-width="2.0" stroke-linejoin="round" stroke-linecap="round"/>
<polyline points="217.8,595.9 237.2,717.7 256.6,758.8 276.0,778.5 295.4,790.4 314.8,798.5 334.2,805.4 353.6,810.6 373.0,814.2 392.4,815.9 411.8,818.7 431.2,820.2 450.6,821.8 470.0,821.6 489.4,822.6 508.8,824.1 528.2,824.0 547.6,824.4 567.0,824.5 586.4,824.9 605.8,825.8 625.2,826.0 644.6,825.8 664.0,826.6 683.4,826.6 702.8,826.3 722.2,826.2 741.6,826.4 761.0,826.7 780.4,826.2 799.8,826.3 819.2,826.2 838.6,826.1 858.0,826.0 877.4,826.3 896.8,826.8 916.2,826.3 935.6,825.9 955.0,826.2 974.4,825.8 993.8,825.7 1013.2,825.3 1032.6,825.6 1052.0,825.4 1071.4,825.3 1090.8,825.1 1110.2,826.0 1129.6,825.8 1149.0,825.3 1168.4,825.1 1187.8,824.7 1207.2,824.4 1226.6,824.2 1246.0,824.2" fill="none" stroke="#00a1c9" stroke-width="2.0" stroke-linejoin="round" stroke-linecap="round"/>
<polyline points="237.2,583.3 256.6,711.9 276.0,754.3 295.4,775.7 314.8,788.3 334.2,796.0 353.6,804.6 373.0,809.7 392.4,812.9 411.8,816.0 431.2,817.5 450.6,818.9 470.0,820.3 489.4,821.8 508.8,822.1 528.2,823.1 547.6,823.0 567.0,824.1 586.4,824.2 605.8,825.5 625.2,825.3 644.6,825.3 664.0,825.4 683.4,826.0 702.8,826.0 722.2,825.5 741.6,825.8 761.0,826.5 780.4,826.2 799.8,826.2 819.2,825.9 838.6,825.9 858.0,825.8 877.4,825.8 896.8,826.5 916.2,826.4 935.6,825.9 955.0,825.8 974.4,825.6 993.8,825.4 1013.2,825.2 1032.6,825.2 1052.0,825.1 1071.4,825.1 1090.8,824.8 1110.2,825.1 1129.6,826.0 1149.0,825.5 1168.4,825.2 1187.8,824.8 1207.2,824.6 1226.6,824.3 1246.0,824.0" fill="none" stroke="#9c6ade" stroke-width="2.0" stroke-linejoin="round" stroke-linecap="round"/>
<line x1="198.4" y1="850" x2="198.4" y2="855" class="axis"/>
<text x="198.4" y="872" text-anchor="middle" class="label">10</text>
<line x1="392.4" y1="850" x2="392.4" y2="855" class="axis"/>
<text x="392.4" y="872" text-anchor="middle" class="label">20</text>
<line x1="586.4" y1="850" x2="586.4" y2="855" class="axis"/>
<text x="586.4" y="872" text-anchor="middle" class="label">30</text>
<line x1="780.4" y1="850" x2="780.4" y2="855" class="axis"/>
<text x="780.4" y="872" text-anchor="middle" class="label">40</text>
<line x1="974.4" y1="850" x2="974.4" y2="855" class="axis"/>
<text x="974.4" y="872" text-anchor="middle" class="label">50</text>
<line x1="1168.4" y1="850" x2="1168.4" y2="855" class="axis"/>
<text x="1168.4" y="872" text-anchor="middle" class="label">60</text>
<text x="664.0" y="896" text-anchor="middle" class="label">pattern length k</text>
</svg>
